<?xml version="1.0" encoding="UTF-8"?>
<!-- Generator: Adobe Illustrator 27.4.1, SVG Export Plug-In . SVG Version: 6.00 Build 0) -->
<svg xmlns="http://www.w3.org/2000/svg" xmlns:xlink="http://www.w3.org/1999/xlink" id="Capa_1" x="0px" y="0px" viewBox="0 0 1431 448.4" style="enable-background:new 0 0 1431 448.4;" xml:space="preserve"> <style type="text/css"> .st0{enable-background:new ;} .st1{fill:none;stroke:#403E3C;stroke-width:1.9878;} </style> <g class="st0"> <path class="st1" d="M39.1,414.5V29.7h124.7c47.3,0,78.1,1.9,92.4,5.8c22.1,5.8,40.5,18.3,55.4,37.7c14.9,19.3,22.3,44.3,22.3,75 c0,23.6-4.3,43.5-12.9,59.6c-8.6,16.1-19.5,28.7-32.7,37.9c-13.2,9.2-26.6,15.3-40.3,18.2c-18.6,3.7-45.4,5.5-80.6,5.5h-50.7v145.2 H39.1z M116.8,94.8V204h42.5c30.6,0,51.1-2,61.4-6c10.3-4,18.4-10.3,24.3-18.9c5.9-8.6,8.8-18.5,8.8-29.9c0-14-4.1-25.6-12.3-34.7 c-8.2-9.1-18.6-14.8-31.2-17.1c-9.3-1.7-27.9-2.6-55.9-2.6H116.8z"/> <path class="st1" d="M399.8,414.5V32.8h77.7v316.9h193.2v64.8H399.8z"/> <path class="st1" d="M1073.2,414.5h-84.5l-33.6-87.4H801.2l-31.8,87.4H687L836.9,29.7h82.2L1073.2,414.5z M930.1,262.3l-53-142.8 l-52,142.8H930.1z"/> <path class="st1" d="M1166.1,414.5v-162l-141-222.9h91.1l90.6,152.3l88.7-152.3h89.5l-141.5,223.4v161.5H1166.1z"/> </g> </svg>