<svg width="221" height="68" viewBox="0 0 221 68" fill="none" xmlns="http://www.w3.org/2000/svg">
<g clip-path="url(#clip0_2_72)">
<path fill-rule="evenodd" clip-rule="evenodd" d="M46.947 1.48387H13.4296C9.86776 1.48415 6.45189 3.00812 3.93338 5.72056C1.41487 8.433 0 12.1117 0 15.9476V52.0529C0.000260651 55.8887 1.41535 59.5675 3.93401 62.2799C6.45267 64.9923 9.86864 66.5163 13.4306 66.5165H46.9481C50.5098 66.516 53.9255 64.9918 56.444 62.2796C58.9624 59.5672 60.3774 55.8886 60.3777 52.0529V15.9476C60.3777 12.1116 58.9627 8.43266 56.4439 5.72018C53.9252 3.00771 50.509 1.48387 46.947 1.48387ZM41.6265 20.314C33.5263 20.314 26.9506 26.8874 26.2733 35.4562C30.4739 31.3446 35.9502 29.0729 41.6265 29.087V37.1319C33.2423 37.1319 26.4896 44.1764 26.2232 53.1833V53.2129V53.793H18.7531V53.0426V36.2268C18.9179 29.8119 21.4002 23.7194 25.6718 19.245C29.9435 14.7707 35.6676 12.2676 41.6265 12.2681V20.314ZM214.783 54.815C214.161 54.4504 213.645 53.907 213.294 53.2451C212.936 52.5352 212.749 51.7407 212.749 50.9333C212.749 50.126 212.936 49.3316 213.294 48.6216C213.644 47.9588 214.16 47.4143 214.78 47.0486C215.427 46.6802 216.147 46.4876 216.878 46.4876C217.608 46.4876 218.328 46.6802 218.973 47.0486C219.593 47.4158 220.107 47.9601 220.456 48.6216C220.814 49.3316 221 50.126 221 50.9333C221 51.7407 220.814 52.5352 220.456 53.2451C220.105 53.9041 219.593 54.4462 218.973 54.8119C218.328 55.1802 217.608 55.3729 216.878 55.3729C216.147 55.3729 215.427 55.1802 214.78 54.8119L214.783 54.815ZM218.563 54.1142C219.064 53.8283 219.477 53.3923 219.752 52.8588C220.038 52.2672 220.187 51.6106 220.188 50.9437C220.19 50.2769 220.041 49.6196 219.758 49.027C219.485 48.4957 219.074 48.06 218.578 47.7716C218.053 47.4828 217.473 47.3322 216.884 47.3322C216.294 47.3322 215.714 47.4828 215.189 47.7716C214.689 48.0579 214.275 48.4937 214 49.027C213.718 49.6209 213.57 50.2792 213.572 50.9469C213.572 51.6146 213.722 52.2723 214.006 52.8652C214.284 53.3967 214.699 53.8304 215.2 54.1142C215.72 54.407 216.299 54.5558 216.887 54.5472C217.47 54.5556 218.046 54.4068 218.563 54.1142ZM215.107 47.9526H217.199C218.393 47.9526 218.988 48.5051 218.988 49.6102C218.999 50.0232 218.867 50.4257 218.614 50.7376C218.366 51.0424 218.005 51.2231 217.533 51.2795L218.743 53.839H218.011L216.812 51.3039H215.792V53.839H215.104L215.107 47.9526ZM217.087 50.6825C217.481 50.6825 217.78 50.6014 217.986 50.439C218.193 50.2771 218.298 50.004 218.298 49.6228C218.298 49.3224 218.25 49.0989 218.157 48.9529C218.064 48.8073 217.923 48.7048 217.763 48.666C217.541 48.6155 217.312 48.5931 217.084 48.5993H215.794V50.6835L217.087 50.6825ZM92.0835 24.5896V55.3714H100.006V37.9566C100.002 36.7006 100.264 35.5919 100.792 34.6308C101.308 33.6802 102.056 32.9 102.955 32.375C103.866 31.8337 104.905 31.5632 106.072 31.5632C106.676 31.568 107.279 31.615 107.877 31.7039C108.398 31.7677 108.915 31.8737 109.421 32.0215V24.4467C109.023 24.3434 108.619 24.2699 108.211 24.2265C107.785 24.1743 107.357 24.1471 106.927 24.145C105.325 24.1444 103.911 24.6354 102.685 25.6185C101.46 26.6014 100.585 28.0481 100.061 29.9584H99.766V24.5896H92.0835ZM112.717 55.374H120.646V25.1456L112.717 18.876V55.374ZM113.594 15.4255V12.033H121.522V21.7142L113.594 15.4255ZM139.1 55.9731C136.172 55.9731 133.656 55.3026 131.553 53.9619C129.468 52.6411 127.787 50.6945 126.714 48.3601C125.591 45.9693 125.03 43.2171 125.03 40.1037C125.03 36.9507 125.598 34.1815 126.733 31.7963C127.817 29.4707 129.5 27.5298 131.58 26.2053C133.677 24.8644 136.171 24.1941 139.062 24.1941C141.556 24.1941 143.739 24.6821 145.611 25.658C147.484 26.634 148.966 28.0034 150.06 29.766C151.15 31.5303 151.753 33.6011 151.865 35.9786H144.384C144.173 34.4352 143.618 33.1944 142.72 32.2558C141.821 31.3172 140.646 30.8461 139.193 30.8425C137.966 30.8425 136.896 31.2 135.983 31.9148C135.07 32.6298 134.36 33.6686 133.852 35.0312C133.343 36.3939 133.088 38.0437 133.089 39.9809C133.089 41.944 133.34 43.6144 133.843 44.9919C134.345 46.3694 135.056 47.418 135.974 48.1379C136.891 48.8591 137.964 49.2197 139.193 49.2197C140.042 49.234 140.881 49.0277 141.64 48.6184C142.372 48.2112 142.994 47.607 143.445 46.8645C143.923 46.0974 144.236 45.1722 144.385 44.0889H151.86C151.737 46.4411 151.144 48.5088 150.084 50.292C149.023 52.0752 147.562 53.4679 145.701 54.47C143.844 55.4728 141.644 55.9737 139.1 55.9731ZM159.451 54.921C160.879 55.6085 162.504 55.952 164.328 55.952C165.742 55.952 166.989 55.7485 168.065 55.3413C169.083 54.972 170.024 54.3937 170.836 53.6381C171.594 52.9259 172.219 52.0657 172.679 51.103H172.903V55.3709H180.422V34.6101C180.422 32.7788 180.094 31.2055 179.438 29.8901C178.797 28.5937 177.875 27.4832 176.749 26.6531C175.566 25.7884 174.249 25.1571 172.861 24.7891C171.367 24.384 169.832 24.1819 168.292 24.1878C166.009 24.1886 164.002 24.5593 162.271 25.3004C160.547 26.0427 159.138 27.0988 158.047 28.4685C156.954 29.8382 156.223 31.4581 155.85 33.3283L163.182 33.9686C163.453 32.9531 164.011 32.108 164.854 31.4335C165.697 30.7588 166.832 30.4214 168.259 30.4214C169.612 30.4229 170.657 30.7705 171.395 31.4641C172.133 32.1579 172.502 33.1398 172.502 34.41V34.5307C172.502 35.1842 172.272 35.6782 171.813 36.0126C171.352 36.3463 170.611 36.5962 169.594 36.7621C168.578 36.9279 167.237 37.1044 165.576 37.2914C164.209 37.4293 162.856 37.6838 161.527 38.0523C160.309 38.3831 159.15 38.9252 158.093 39.6571C157.092 40.3606 156.273 41.3256 155.712 42.4623C155.128 43.6244 154.838 45.0605 154.838 46.7704C154.837 48.8013 155.25 50.495 156.076 51.8513C156.898 53.2076 158.072 54.2747 159.451 54.921ZM169.687 49.3088C168.794 49.8098 167.763 50.0603 166.598 50.0603C165.379 50.0589 164.377 49.754 163.591 49.1457C162.805 48.5374 162.411 47.6521 162.411 46.4898C162.412 45.6889 162.603 45.0186 162.988 44.4786C163.372 43.9389 163.911 43.508 164.607 43.1862C165.388 42.8408 166.207 42.6052 167.044 42.4854C167.479 42.4192 167.963 42.3423 168.497 42.2547C169.029 42.1673 169.563 42.0671 170.096 41.9541C170.583 41.8532 171.065 41.7259 171.54 41.5731C171.896 41.4669 172.237 41.3087 172.554 41.1031V44.3686C172.568 45.397 172.303 46.4076 171.791 47.2754C171.269 48.1422 170.544 48.8441 169.687 49.3088ZM193.949 55.952C192.124 55.952 190.499 55.6085 189.072 54.921C187.694 54.2747 186.519 53.2076 185.696 51.8513C184.87 50.495 184.457 48.8013 184.458 46.7704C184.458 45.0605 184.75 43.6244 185.332 42.4623C185.894 41.3257 186.713 40.3606 187.715 39.6571C188.77 38.9252 189.931 38.3831 191.148 38.0523C192.476 37.6838 193.829 37.4295 195.196 37.2914C196.857 37.1044 198.196 36.9279 199.214 36.7621C200.232 36.5962 200.97 36.346 201.429 36.0115C201.887 35.677 202.117 35.183 202.117 34.5296V34.409C202.117 33.1387 201.749 32.1567 201.011 31.4631C200.274 30.7694 199.229 30.4218 197.875 30.4205C196.448 30.4205 195.313 30.7577 194.469 31.4324C193.626 32.107 193.07 32.952 192.799 33.9675L185.467 33.3271C185.84 31.4571 186.572 29.8371 187.662 28.4674C188.754 27.0977 190.164 26.0421 191.893 25.3004C193.623 24.5593 195.629 24.1886 197.912 24.1878C199.452 24.1819 200.987 24.3838 202.481 24.7891C203.87 25.1571 205.187 25.7884 206.37 26.6531C207.495 27.4832 208.418 28.5937 209.059 29.8901C209.718 31.2055 210.049 32.7805 210.049 34.6154V55.3709H202.532V51.103H202.308C201.848 52.0655 201.223 52.9257 200.467 53.6381C199.653 54.3934 198.711 54.9719 197.693 55.3413C196.612 55.7485 195.363 55.952 193.949 55.952ZM196.219 50.0603C197.386 50.0603 198.416 49.8098 199.307 49.3088C200.164 48.8441 200.891 48.1422 201.412 47.2754C201.923 46.4073 202.188 45.3968 202.174 44.3686V41.1031C201.857 41.3087 201.516 41.4669 201.16 41.5731C200.685 41.7261 200.203 41.8534 199.716 41.9541C199.184 42.0671 198.65 42.1673 198.117 42.2547C197.585 42.3415 197.099 42.4187 196.666 42.4854C195.827 42.6057 195.006 42.8423 194.224 43.1894C193.53 43.5113 192.989 43.9421 192.605 44.4819C192.22 45.0217 192.028 45.6921 192.028 46.4931C192.028 47.6554 192.42 48.5407 193.207 49.149C193.993 49.7572 194.997 50.061 196.219 50.0603ZM88.03 18.6739V12.0274L83.3138 12.0327C82.9735 12.0584 82.6348 12.1058 82.2995 12.1746C81.2152 12.3801 80.1735 12.7916 79.2229 13.3898C77.305 14.5794 75.8277 16.4461 75.0406 18.6739C75.0352 18.6896 75.0298 18.7054 75.0244 18.7211C74.9802 18.8482 74.9349 18.9786 74.8981 19.1048C74.8569 19.2466 74.8127 19.4064 74.7763 19.5419C74.7401 19.6768 74.7097 19.8107 74.6785 19.9486L74.678 19.9506C74.6766 19.958 74.6747 19.9659 74.6726 19.9742C74.6685 19.9904 74.6642 20.0077 74.6642 20.0246C74.6434 20.1113 74.6272 20.198 74.6102 20.2885L74.6083 20.2988L74.6025 20.3293C74.5907 20.3926 74.5792 20.4541 74.5699 20.519C74.5687 20.5266 74.5668 20.5336 74.5648 20.5405C74.5619 20.5506 74.5591 20.5605 74.5591 20.5718C74.5316 20.7402 74.511 20.9086 74.4932 21.081C74.4794 21.1742 74.4716 21.2568 74.4618 21.369C74.4519 21.4812 74.445 21.589 74.4382 21.7056V21.7658V21.7987V21.878C74.4274 22.0242 74.4274 22.1691 74.4274 22.3196V24.5878H70.3896V31.0025H74.4274V55.3709H82.2995V31.0048H88.03V24.5901H82.2995V22.3364C82.2974 21.7189 82.4423 21.1109 82.7203 20.5708C82.7776 20.4614 82.8401 20.3555 82.9079 20.2533C82.9139 20.2444 82.9197 20.2352 82.9257 20.2258C82.9372 20.2073 82.9493 20.1882 82.963 20.1708C82.9808 20.1419 83.0005 20.1147 83.022 20.0892C83.0285 20.083 83.0344 20.076 83.0401 20.0697L83.0435 20.0658C83.3586 19.6319 83.7614 19.2811 84.2213 19.0398C84.6812 18.7986 85.186 18.6735 85.6975 18.6739H88.03Z" fill="url(#paint0_linear_2_72)"/>
</g>
<defs>
<linearGradient id="paint0_linear_2_72" x1="52.2473" y1="1.48386" x2="143.023" y2="65.7585" gradientUnits="userSpaceOnUse">
<stop stop-color="white"/>
<stop offset="0.0001" stop-color="white"/>
</linearGradient>
<clipPath id="clip0_2_72">
<rect width="221" height="68" fill="white"/>
</clipPath>
</defs>
</svg>
